<?xml version="1.0" encoding="UTF-8"?>
<svg xmlns="http://www.w3.org/2000/svg" version="1.1" xmlns:inkscape="http://www.inkscape.org/namespaces/inkscape" xmlns:sodipodi="http://sodipodi.sourceforge.net/DTD/sodipodi-0.dtd" xmlns:svg="http://www.w3.org/2000/svg" viewBox="0 0 528.1 62.2">
  <defs>
    <style>
      .color-1 {
        fill: #ee3520;
      }

      .color-2 {
        fill: #1c80ec;
      }

      .color-3 {
        fill: #100f0d;
      }
    </style>
  </defs>
  <!-- Generator: Adobe Illustrator 28.7.0, SVG Export Plug-In . SVG Version: 1.2.0 Build 136)  -->
  <g>
    <g id="svg2">
      <sodipodi:namedview id="namedview4" bordercolor="#000000" borderopacity="0.25" inkscape:deskcolor="#d1d1d1" inkscape:pagecheckerboard="0" inkscape:pageopacity="0.0" inkscape:showpageshadow="2" pagecolor="#ffffff"/>
      <g id="g8" inkscape:groupmode="layer" inkscape:label="ink_ext_XXXXXX">
        <g id="g10">
          <path id="path12" class="color-2" d="M44.7,57.3c-4.4,2.3-9.9,3.4-16.5,3.4s-15.4-2.7-20.5-8.1C2.6,47.3,0,40.2,0,31.5S2.9,14.5,8.7,8.7C14.5,2.9,21.8,0,30.6,0s10.4.8,14.1,2.4v9.7c-4-2.3-8.3-3.5-13.1-3.5s-11.5,2-15.5,6.1c-3.9,4.1-5.9,9.5-5.9,16.3s1.8,11.6,5.5,15.5c3.7,3.8,8.5,5.8,14.6,5.8s10.4-1.3,14.4-3.9v9"/>
          <path id="path14" class="color-2" d="M94.5,57.3c-4.4,2.3-9.9,3.4-16.5,3.4s-15.4-2.7-20.5-8.1c-5.1-5.4-7.7-12.4-7.7-21.2s2.9-17,8.7-22.8C64.2,2.9,71.5,0,80.3,0s10.4.8,14.1,2.4v9.7c-4-2.3-8.3-3.5-13.1-3.5s-11.5,2-15.5,6.1c-3.9,4.1-5.9,9.5-5.9,16.3s1.8,11.6,5.5,15.5c3.7,3.8,8.5,5.8,14.6,5.8s10.4-1.3,14.4-3.9v9"/>
          <path id="path16" class="color-3" d="M186.3,17.7l-15.9,41.1h-10.1l-15.1-41.1h10.1l9.1,28.7c.7,2.1,1.1,4,1.3,5.5h.1c.2-2,.6-3.8,1.1-5.4l9.5-28.9h9.8"/>
          <path id="path18" class="color-3" d="M216.1,34.1c0-3.3-.8-5.9-2.4-7.8-1.6-1.9-3.7-2.8-6.4-2.8s-4.9,1-6.8,2.9c-1.9,2-3,4.5-3.4,7.7h19ZM225.1,40.7h-28c.1,3.8,1.3,6.7,3.5,8.8,2.2,2.1,5.3,3.1,9.2,3.1s8.4-1.3,12.1-3.9v7.5c-3.7,2.4-8.7,3.5-14.8,3.5s-10.8-1.9-14.2-5.6c-3.4-3.7-5.2-9-5.2-15.7s1.9-11.6,5.7-15.6c3.8-4,8.5-6,14.1-6s10,1.8,13,5.4c3.1,3.6,4.6,8.6,4.6,15v3.6"/>
          <path id="path20" class="color-3" d="M269.7,58.7h-9.3v-23.1c0-7.7-2.7-11.5-8.1-11.5s-5.2,1.1-7,3.2c-1.8,2.1-2.8,4.8-2.8,8v23.4h-9.3V17.7h9.3v6.8h.2c3.1-5.2,7.5-7.8,13.3-7.8s7.9,1.5,10.2,4.4c2.4,2.9,3.5,7.1,3.5,12.6v25.1"/>
          <path id="path22" class="color-3" d="M316.9,58.7h-9.3v-6.5h-.2c-2.7,5-6.9,7.5-12.6,7.5-9.7,0-14.6-5.8-14.6-17.5v-24.5h9.3v23.6c0,7.4,2.8,11.1,8.5,11.1s5-1,6.8-3c1.8-2,2.7-4.7,2.7-8v-23.6h9.3v41.1"/>
          <path id="path24" class="color-3" d="M354.8,34.1c0-3.3-.8-5.9-2.4-7.8-1.6-1.9-3.7-2.8-6.4-2.8s-4.9,1-6.8,2.9c-1.9,2-3,4.5-3.4,7.7h19ZM363.7,40.7h-28c.1,3.8,1.3,6.7,3.5,8.8,2.2,2.1,5.3,3.1,9.2,3.1s8.4-1.3,12.1-3.9v7.5c-3.7,2.4-8.7,3.5-14.8,3.5s-10.8-1.9-14.2-5.6c-3.4-3.7-5.2-9-5.2-15.7s1.9-11.6,5.7-15.6c3.8-4,8.5-6,14.1-6s10,1.8,13,5.4c3.1,3.6,4.6,8.6,4.6,15v3.6"/>
          <path id="path26" class="color-3" d="M139.9,58.7l-14.5-43.5c-.6-1.8-1-3.4-1.2-4.9h-.2c-.2,1.8-.6,3.5-1,4.9l-14.2,43.6h-10.4L118.7,1.2h10.7l20.6,57.5h-10.1"/>
          <path id="path28" class="color-1" d="M79,34.4h48.3l5.1,14.6-53.5-14.6Z"/>
          <path id="path30" class="color-3" d="M369.2,11c0-.7-.2-1.1-1.3-1.1h-.9v2.2h1.1c.7,0,1.1-.4,1.1-1.1h0ZM371.4,17.3h-1.4c-.2,0-.3,0-.4-.2l-1.6-3h-1.1v2.8c0,.2-.2.4-.4.4h-1.3c-.2,0-.4-.2-.4-.4v-8.4c0-.2.2-.4.4-.4h2.7c2.4,0,3.4,1.1,3.4,2.9s-.5,2-1.3,2.5c.1.2,0,0,1.8,3.3.1.3,0,.6-.4.6h0ZM374.8,12.7c0-3.7-3-6.8-6.8-6.8s-6.8,3-6.8,6.8,3,6.8,6.8,6.8,6.8-3,6.8-6.8ZM376.5,12.7c0,4.6-3.8,8.4-8.4,8.4s-8.4-3.8-8.4-8.4,3.8-8.4,8.4-8.4,8.4,3.8,8.4,8.4"/>
          <path id="path32" class="color-2" d="M396.5,53.8h7.2c3.3,0,6.1-.6,8.3-1.9,2.2-1.3,3.8-3.1,4.9-5.5,1.1-2.4,1.6-5.3,1.6-8.8s-.5-6.3-1.6-8.7c-1.1-2.4-2.7-4.2-4.8-5.4-2.1-1.2-4.8-1.9-8-1.9h-7.6v32.1ZM404,59.6h-14.1V15.9h14.6c4.3,0,7.9.9,11,2.6,3.1,1.7,5.4,4.2,7.1,7.5,1.6,3.2,2.5,7.1,2.5,11.7s-.8,8.5-2.5,11.7c-1.7,3.3-4,5.8-7.2,7.5-3.1,1.8-6.9,2.6-11.3,2.6"/>
          <path id="path34" class="color-2" d="M446.5,54.9c2,0,3.6-.5,4.9-1.6,1.3-1.1,2.3-2.5,2.9-4.2.6-1.7.9-3.7.9-5.8s-.3-4-.9-5.8c-.6-1.8-1.6-3.2-2.9-4.2-1.3-1.1-3-1.6-4.9-1.6s-3.7.5-5,1.6c-1.3,1.1-2.3,2.5-2.9,4.2-.6,1.8-.9,3.7-.9,5.8s.3,4,.9,5.8c.6,1.7,1.6,3.1,2.9,4.2,1.3,1.1,3,1.6,5,1.6ZM446.5,60.2c-3.1,0-5.7-.7-8-2.1-2.3-1.4-4.1-3.4-5.3-5.9-1.3-2.5-1.9-5.5-1.9-8.9s.6-6.4,1.9-8.9c1.3-2.5,3-4.5,5.3-5.9,2.3-1.4,5-2.1,8-2.1s5.7.7,8,2.1c2.3,1.4,4.1,3.4,5.3,5.9,1.3,2.5,1.9,5.5,1.9,8.9s-.6,6.3-1.9,8.9c-1.3,2.5-3,4.5-5.3,5.9-2.3,1.4-5,2.1-8,2.1"/>
          <path id="path36" class="color-2" d="M482.6,60.2c-3.2,0-5.9-.7-8.2-2.2-2.3-1.4-4-3.4-5.3-6-1.2-2.5-1.8-5.5-1.8-8.7s.6-6.3,1.9-8.8c1.3-2.5,3-4.5,5.3-6,2.3-1.4,5-2.2,8-2.2s4.7.5,6.6,1.4c1.9.9,3.5,2.2,4.7,3.8,1.2,1.6,1.9,3.6,2.1,5.8h-6.2c-.3-1.5-1.1-2.9-2.3-4-1.2-1.1-2.8-1.7-4.9-1.7s-3.3.5-4.7,1.4c-1.3.9-2.4,2.3-3.1,4-.7,1.7-1.1,3.7-1.1,6.1s.4,4.4,1.1,6.2c.7,1.7,1.8,3.1,3.1,4,1.3,1,2.9,1.4,4.7,1.4s2.3-.2,3.3-.7c1-.4,1.8-1.1,2.5-1.9.7-.8,1.1-1.8,1.4-3h6.2c-.2,2.1-.9,4-2.1,5.7-1.2,1.7-2.7,3-4.6,3.9-1.9,1-4.2,1.4-6.8,1.4"/>
          <path id="path38" class="color-2" d="M527.4,34.8l-5.8,1c-.2-.7-.6-1.4-1.1-2.1-.5-.7-1.2-1.2-2.1-1.6-.9-.4-2-.6-3.3-.6s-3.3.4-4.5,1.2c-1.2.8-1.8,1.8-1.8,3.1s.4,2,1.2,2.6c.8.7,2.1,1.2,3.9,1.6l5.2,1.2c3,.7,5.3,1.8,6.7,3.2,1.5,1.4,2.2,3.3,2.2,5.6s-.6,3.7-1.7,5.2c-1.1,1.5-2.7,2.7-4.7,3.6-2,.9-4.3,1.3-7,1.3s-6.7-.8-9-2.4c-2.3-1.6-3.7-3.8-4.3-6.7l6.2-.9c.4,1.6,1.2,2.8,2.4,3.6,1.2.8,2.7,1.2,4.7,1.2s3.8-.4,5-1.3c1.2-.9,1.9-1.9,1.9-3.2s-.4-1.9-1.1-2.6c-.8-.7-1.9-1.2-3.5-1.6l-5.5-1.2c-3.1-.7-5.3-1.8-6.8-3.3-1.5-1.5-2.2-3.4-2.2-5.8s.5-3.6,1.6-5.1c1.1-1.4,2.6-2.6,4.5-3.4,1.9-.8,4.1-1.2,6.5-1.2,3.5,0,6.3.8,8.4,2.3,2,1.5,3.4,3.6,4,6.1"/>
        </g>
      </g>
    </g>
  </g>
</svg>